# xmcd
#
# Track frame offsets:
# 150
# 15072
# 29922
# 43484
# 56521
# 72150
# 84467
# 96263
# 107321
# 122659
#
# Disc length: 1819 seconds
#
#
# Revision: 0
# Processed by: cddbd v1.4PL0 Copyright (c) Steve Scherf et al.
# Submitted via: FreeRIP 2.30 
#
DISCID=7c07190a
DTITLE=Vern Gosdin - If You're Gonna Do Me Wrong (Do It Right)
DYEAR=1983
DGENRE=Country
TTITLE0=If You're Gonna Do Me Wrong (Do It Right)
TTITLE1=Tennessee Courage
TTITLE2=Today My World Slipped Away
TTITLE3=I Feel Love Closin' In
TTITLE4=I Wonder Where We'd Be Tonight
TTITLE5=Way Down Deep
TTITLE6=I Couldn't Love You More
TTITLE7=My Heart Is In Good Hands
TTITLE8=Favorite Fool Of All
TTITLE9=I'll Try
EXTD=Compleat Records\nCPL-1-1004 Stereo
EXTT0=
EXTT1=
EXTT2=
EXTT3=
EXTT4=
EXTT5=
EXTT6=
EXTT7=
EXTT8=
EXTT9=
PLAYORDER=
